<svg aria-hidden="true" style="position: absolute; width: 0; height: 0; overflow: hidden;" version="1.1" xmlns="http://www.w3.org/2000/svg" xmlns:xlink="http://www.w3.org/1999/xlink">
<defs>
<symbol id="icon-facebook" viewBox="0 0 8 8">
<path d="M3.478 2.775v0.551h-0.403v0.673h0.403v2.001h0.829v-2.001h0.556c0 0 0.052-0.323 0.078-0.676h-0.63v-0.46c0-0.069 0.090-0.162 0.18-0.162h0.451v-0.701h-0.614c-0.87 0-0.849 0.674-0.849 0.775z"></path>
<path d="M1.6 0.8c-0.212 0-0.416 0.084-0.566 0.234s-0.234 0.354-0.234 0.566v4.8c0 0.212 0.084 0.416 0.234 0.566s0.354 0.234 0.566 0.234h4.8c0.212 0 0.416-0.084 0.566-0.234s0.234-0.354 0.234-0.566v-4.8c0-0.212-0.084-0.416-0.234-0.566s-0.354-0.234-0.566-0.234h-4.8zM1.6 0h4.8c0.424 0 0.831 0.169 1.131 0.469s0.469 0.707 0.469 1.131v4.8c0 0.424-0.169 0.831-0.469 1.131s-0.707 0.469-1.131 0.469h-4.8c-0.424 0-0.831-0.169-1.131-0.469s-0.469-0.707-0.469-1.131v-4.8c0-0.424 0.169-0.831 0.469-1.131s0.707-0.469 1.131-0.469v0z"></path>
</symbol>
<symbol id="icon-telephone" viewBox="0 0 5 8">
<path d="M3.9 0c0.239 0 0.468 0.095 0.636 0.264s0.264 0.398 0.264 0.636v6.2c0 0.239-0.095 0.468-0.264 0.636s-0.398 0.264-0.636 0.264h-3c-0.239 0-0.468-0.095-0.636-0.264s-0.264-0.398-0.264-0.636v-6.2c0-0.239 0.095-0.468 0.264-0.636s0.398-0.264 0.636-0.264h3zM3.9 0.6h-3c-0.080 0-0.156 0.032-0.212 0.088s-0.088 0.133-0.088 0.212v6.2c0 0.166 0.134 0.3 0.3 0.3h3c0.080 0 0.156-0.032 0.212-0.088s0.088-0.133 0.088-0.212v-6.2c0-0.080-0.032-0.156-0.088-0.212s-0.133-0.088-0.212-0.088zM2.9 6.2c0.080-0 0.156 0.031 0.212 0.088s0.088 0.132 0.088 0.212-0.031 0.156-0.088 0.212c-0.056 0.056-0.132 0.088-0.212 0.088l-1 0.002c-0.080 0-0.156-0.031-0.212-0.088s-0.088-0.132-0.088-0.212 0.031-0.156 0.088-0.212c0.056-0.056 0.132-0.088 0.212-0.088l1-0.002z"></path>
</symbol>
<symbol id="icon-location" viewBox="0 0 5 8">
<path d="M2.5 0.004c-1.381 0-2.5 1.115-2.5 2.495 0 2.387 2.5 5.5 2.5 5.5s2.5-3.114 2.5-5.5c0-1.38-1.119-2.495-2.5-2.495zM2.5 3.88c-0.358 0-0.701-0.142-0.955-0.395s-0.395-0.597-0.395-0.955c0-0.358 0.142-0.701 0.395-0.955s0.597-0.395 0.955-0.395c0.358 0 0.701 0.142 0.955 0.395s0.395 0.597 0.395 0.955c0 0.358-0.142 0.701-0.395 0.955s-0.597 0.395-0.955 0.395z"></path>
</symbol>
<symbol id="icon-insta" viewBox="0 0 8 8">
<path d="M2.351 0.024c0.427-0.020 0.563-0.024 1.649-0.024s1.223 0.005 1.649 0.024c0.426 0.019 0.717 0.087 0.972 0.186 0.267 0.101 0.508 0.258 0.708 0.462 0.204 0.2 0.361 0.441 0.461 0.708 0.099 0.255 0.167 0.545 0.186 0.971 0.020 0.427 0.024 0.563 0.024 1.649s-0.005 1.223-0.024 1.649c-0.019 0.425-0.087 0.716-0.186 0.971-0.1 0.267-0.258 0.509-0.461 0.709-0.2 0.204-0.442 0.361-0.708 0.461-0.255 0.099-0.545 0.167-0.971 0.186-0.427 0.020-0.563 0.024-1.649 0.024s-1.223-0.005-1.649-0.024c-0.425-0.019-0.716-0.087-0.971-0.186-0.267-0.1-0.509-0.258-0.709-0.461-0.204-0.2-0.361-0.441-0.461-0.708-0.099-0.255-0.166-0.545-0.186-0.971-0.020-0.427-0.024-0.563-0.024-1.649s0.005-1.223 0.024-1.649 0.087-0.717 0.186-0.972c0.101-0.267 0.258-0.509 0.462-0.708 0.2-0.203 0.441-0.361 0.708-0.461 0.255-0.099 0.546-0.166 0.971-0.186zM5.616 0.744c-0.422-0.019-0.548-0.023-1.616-0.023s-1.195 0.004-1.616 0.023c-0.39 0.018-0.602 0.083-0.743 0.138-0.187 0.073-0.32 0.159-0.46 0.299-0.133 0.129-0.235 0.286-0.299 0.46-0.055 0.141-0.12 0.353-0.138 0.743-0.019 0.422-0.023 0.548-0.023 1.616s0.004 1.195 0.023 1.616c0.018 0.39 0.083 0.602 0.138 0.743 0.064 0.173 0.166 0.331 0.299 0.46 0.129 0.133 0.287 0.235 0.46 0.299 0.141 0.055 0.353 0.12 0.743 0.138 0.422 0.019 0.548 0.023 1.616 0.023s1.195-0.004 1.616-0.023c0.39-0.018 0.602-0.083 0.743-0.138 0.187-0.073 0.32-0.159 0.46-0.299 0.133-0.129 0.235-0.287 0.299-0.46 0.055-0.141 0.12-0.353 0.138-0.743 0.019-0.422 0.023-0.548 0.023-1.616s-0.004-1.195-0.023-1.616c-0.018-0.39-0.083-0.602-0.138-0.743-0.073-0.187-0.159-0.32-0.299-0.46-0.129-0.133-0.286-0.235-0.46-0.299-0.141-0.055-0.353-0.12-0.743-0.138zM3.489 5.233c0.285 0.119 0.603 0.135 0.899 0.045s0.551-0.279 0.723-0.536c0.172-0.257 0.249-0.566 0.218-0.873s-0.167-0.595-0.386-0.813c-0.14-0.139-0.308-0.246-0.494-0.313s-0.384-0.091-0.58-0.071-0.386 0.082-0.555 0.183c-0.169 0.101-0.314 0.239-0.423 0.403s-0.181 0.35-0.21 0.546c-0.029 0.195-0.014 0.394 0.043 0.583s0.156 0.363 0.288 0.509c0.132 0.146 0.296 0.261 0.478 0.337zM2.546 2.546c0.191-0.191 0.418-0.342 0.667-0.446s0.517-0.157 0.787-0.157c0.27 0 0.537 0.053 0.787 0.157s0.476 0.255 0.667 0.446c0.191 0.191 0.342 0.418 0.446 0.667s0.157 0.517 0.157 0.787-0.053 0.537-0.157 0.787c-0.103 0.249-0.255 0.476-0.446 0.667-0.386 0.386-0.909 0.602-1.454 0.602s-1.068-0.217-1.454-0.602-0.602-0.909-0.602-1.454c0-0.545 0.217-1.068 0.602-1.454zM6.512 2.25c0.047-0.045 0.085-0.098 0.111-0.158s0.040-0.124 0.041-0.189c0.001-0.065-0.011-0.13-0.036-0.19s-0.061-0.115-0.107-0.161c-0.046-0.046-0.101-0.082-0.161-0.107s-0.125-0.037-0.19-0.036c-0.065 0.001-0.129 0.015-0.189 0.041s-0.113 0.064-0.158 0.111c-0.087 0.092-0.134 0.214-0.132 0.341s0.053 0.247 0.142 0.337c0.089 0.089 0.21 0.141 0.337 0.142s0.249-0.046 0.341-0.132z"></path>
</symbol>
<symbol id="icon-telegram" viewBox="0 0 8 8">
<path d="M7.812 0.42c-0.101 0.007-0.201 0.031-0.295 0.070h-0.001c-0.090 0.036-0.518 0.216-1.168 0.489l-2.331 0.982c-1.673 0.704-3.317 1.398-3.317 1.398l0.020-0.008c0 0-0.113 0.037-0.232 0.118-0.073 0.047-0.136 0.107-0.185 0.179-0.058 0.085-0.105 0.216-0.087 0.351 0.028 0.228 0.176 0.365 0.282 0.44 0.107 0.076 0.21 0.112 0.21 0.112h0.003l1.542 0.519c0.069 0.222 0.47 1.539 0.566 1.843 0.057 0.181 0.112 0.295 0.181 0.381 0.033 0.044 0.073 0.081 0.12 0.111 0.024 0.014 0.051 0.025 0.078 0.033l-0.016-0.004c0.005 0.001 0.009 0.005 0.012 0.006 0.013 0.003 0.021 0.005 0.037 0.007 0.244 0.074 0.44-0.078 0.44-0.078l0.011-0.009 0.91-0.829 1.526 1.171 0.035 0.015c0.318 0.14 0.64 0.062 0.81-0.075 0.171-0.138 0.238-0.315 0.238-0.315l0.011-0.028 1.179-6.041c0.033-0.149 0.042-0.289 0.005-0.424-0.038-0.137-0.126-0.255-0.247-0.331-0.101-0.062-0.219-0.091-0.337-0.085zM7.78 1.067c-0.001 0.020 0.003 0.018-0.006 0.056v0.003l-1.168 5.978c-0.005 0.009-0.014 0.027-0.037 0.046-0.025 0.020-0.044 0.032-0.147-0.009l-1.866-1.431-1.127 1.028 0.237-1.513 3.049-2.842c0.126-0.117 0.084-0.141 0.084-0.141 0.009-0.143-0.19-0.042-0.19-0.042l-3.845 2.382-0.001-0.006-1.848-0.623c0.003-0.001 0.006-0.002 0.009-0.004l0.010-0.005 0.010-0.003c0 0 1.646-0.693 3.318-1.398 0.837-0.353 1.681-0.708 2.33-0.982 0.385-0.162 0.77-0.323 1.156-0.483 0.026-0.010 0.014-0.010 0.032-0.010z"></path>
</symbol>
<symbol id="icon-pointer-left" viewBox="0 0 14 8">
<path d="M13.37 3.555h-11.59l2.667-2.667-0.629-0.629-3.74 3.74 3.74 3.74 0.629-0.629-2.667-2.667h11.59v-0.889z"></path>
</symbol>
<symbol id="icon-pointer-right" viewBox="0 0 13 8">
<path d="M9.552 0.26l-0.629 0.629 2.667 2.667h-11.59v0.889h11.59l-2.666 2.666 0.629 0.629 3.74-3.74-3.74-3.74z"></path>
</symbol>
<symbol id="icon-close" viewBox="0 0 8 8">
<path stroke-linejoin="round" stroke-linecap="round" stroke-miterlimit="4" stroke-width="0.5" d="M6.857 0.857l-6 6"></path>
<path stroke-linejoin="round" stroke-linecap="round" stroke-miterlimit="4" stroke-width="0.5" d="M0.857 0.857l6 6"></path>
</symbol>
</defs>
</svg>
